<svg xmlns="http://www.w3.org/2000/svg">
  <symbol id="hero-arrow-right" viewBox="0 0 24 24">
    <path d="M13.5 4.5L21 12M21 12L13.5 19.5M21 12H3" fill="none" stroke="currentColor" stroke-width="1.5" stroke-linecap="round" stroke-linejoin="round"/>
  </symbol>
  <symbol id="hero-video-camera" viewBox="0 0 24 24">
    <path d="M15.75 10.5L20.4697 5.78033C20.9421 5.30786 21.75 5.64248 21.75 6.31066V17.6893C21.75 18.3575 20.9421 18.6921 20.4697 18.2197L15.75 13.5M4.5 18.75H13.5C14.7426 18.75 15.75 17.7426 15.75 16.5V7.5C15.75 6.25736 14.7426 5.25 13.5 5.25H4.5C3.25736 5.25 2.25 6.25736 2.25 7.5V16.5C2.25 17.7426 3.25736 18.75 4.5 18.75Z" fill="none" stroke="currentColor" stroke-width="1.5" stroke-linecap="round" stroke-linejoin="round"/>
  </symbol>
  <symbol id="hero-camera" viewBox="0 0 24 24">
    <path d="M6.82689 6.1749C6.46581 6.75354 5.86127 7.13398 5.186 7.22994C4.80655 7.28386 4.42853 7.34223 4.05199 7.40497C2.99912 7.58042 2.25 8.50663 2.25 9.57402V18C2.25 19.2426 3.25736 20.25 4.5 20.25H19.5C20.7426 20.25 21.75 19.2426 21.75 18V9.57403C21.75 8.50664 21.0009 7.58043 19.948 7.40498C19.5715 7.34223 19.1934 7.28387 18.814 7.22995C18.1387 7.13398 17.5342 6.75354 17.1731 6.17491L16.3519 4.85889C15.9734 4.25237 15.3294 3.85838 14.6155 3.82005C13.7496 3.77355 12.8775 3.75 12 3.75C11.1225 3.75 10.2504 3.77355 9.3845 3.82005C8.6706 3.85838 8.02658 4.25237 7.64809 4.85889L6.82689 6.1749Z" fill="none" stroke="currentColor" stroke-width="1.5" stroke-linecap="round" stroke-linejoin="round"/>
    <path d="M16.5 12.75C16.5 15.2353 14.4853 17.25 12 17.25C9.51472 17.25 7.5 15.2353 7.5 12.75C7.5 10.2647 9.51472 8.25 12 8.25C14.4853 8.25 16.5 10.2647 16.5 12.75Z" fill="none" stroke="currentColor" stroke-width="1.5" stroke-linecap="round" stroke-linejoin="round"/>
    <path d="M18.75 10.5H18.7575V10.5075H18.75V10.5Z" fill="none" stroke="currentColor" stroke-width="1.5" stroke-linecap="round" stroke-linejoin="round"/>
  </symbol>
  <symbol id="hero-plus" viewBox="0 0 24 24">
    <path d="M12 4.5V19.5M19.5 12L4.5 12" fill="none" stroke="currentColor" stroke-width="1.5" stroke-linecap="round" stroke-linejoin="round"/>
  </symbol>
  <symbol id="hero-play-circle" viewBox="0 0 24 24">
    <path d="M21 12C21 16.9706 16.9706 21 12 21C7.02944 21 3 16.9706 3 12C3 7.02944 7.02944 3 12 3C16.9706 3 21 7.02944 21 12Z" fill="none" stroke="currentColor" stroke-width="1.5" stroke-linecap="round" stroke-linejoin="round"/>
    <path d="M15.9099 11.6722C16.1671 11.8151 16.1671 12.1849 15.9099 12.3278L10.3071 15.4405C10.0572 15.5794 9.75 15.3986 9.75 15.1127V8.88732C9.75 8.60139 10.0572 8.42065 10.3071 8.55951L15.9099 11.6722Z" fill="none" stroke="currentColor" stroke-width="1.5" stroke-linecap="round" stroke-linejoin="round"/>
  </symbol>
  <symbol id="hero-chat-bubble-left-right" viewBox="0 0 24 24">
    <path d="M20.25 8.51104C21.1341 8.79549 21.75 9.6392 21.75 10.6082V14.8938C21.75 16.0304 20.9026 16.9943 19.7697 17.0867C19.4308 17.1144 19.0909 17.1386 18.75 17.1592V20.25L15.75 17.25C14.3963 17.25 13.0556 17.1948 11.7302 17.0866C11.4319 17.0623 11.1534 16.9775 10.9049 16.8451M20.25 8.51104C20.0986 8.46232 19.9393 8.43 19.7739 8.41628C18.4472 8.30616 17.1051 8.25 15.75 8.25C14.3948 8.25 13.0528 8.30616 11.7261 8.41627C10.595 8.51015 9.75 9.47323 9.75 10.6082V14.8937C9.75 15.731 10.2099 16.4746 10.9049 16.8451M20.25 8.51104V6.63731C20.25 5.01589 19.0983 3.61065 17.4903 3.40191C15.4478 3.13676 13.365 3 11.2503 3C9.13533 3 7.05233 3.13678 5.00963 3.40199C3.40173 3.61074 2.25 5.01598 2.25 6.63738V12.8626C2.25 14.484 3.40173 15.8893 5.00964 16.098C5.58661 16.1729 6.16679 16.2376 6.75 16.2918V21L10.9049 16.8451" fill="none" stroke="currentColor" stroke-width="1.5" stroke-linecap="round" stroke-linejoin="round"/>
  </symbol>
  <symbol id="hero-map" viewBox="0 0 24 24">
    <path d="M9 6.75002V15M15 9.00002V17.25M15.5031 20.7485L20.3781 18.311C20.7592 18.1204 21 17.7309 21 17.3047V4.82031C21 3.98401 20.1199 3.44007 19.3719 3.81408L15.5031 5.74847C15.1864 5.90683 14.8136 5.90683 14.4969 5.74847L9.50312 3.25158C9.1864 3.09322 8.8136 3.09322 8.49688 3.25158L3.62188 5.68908C3.24075 5.87965 3 6.26919 3 6.69531V19.1797C3 20.016 3.8801 20.56 4.62811 20.186L8.49688 18.2516C8.8136 18.0932 9.1864 18.0932 9.50312 18.2516L14.4969 20.7485C14.8136 20.9068 15.1864 20.9068 15.5031 20.7485Z" fill="none" stroke="currentColor" stroke-width="1.5" stroke-linecap="round" stroke-linejoin="round"/>
  </symbol>
  <symbol id="hero-sparkles" viewBox="0 0 24 24">
    <path d="M9.8132 15.9038L9 18.75L8.1868 15.9038C7.75968 14.4089 6.59112 13.2403 5.09619 12.8132L2.25 12L5.09619 11.1868C6.59113 10.7597 7.75968 9.59112 8.1868 8.09619L9 5.25L9.8132 8.09619C10.2403 9.59113 11.4089 10.7597 12.9038 11.1868L15.75 12L12.9038 12.8132C11.4089 13.2403 10.2403 14.4089 9.8132 15.9038Z" fill="none" stroke="currentColor" stroke-width="1.5" stroke-linecap="round" stroke-linejoin="round"/>
    <path d="M18.2589 8.71454L18 9.75L17.7411 8.71454C17.4388 7.50533 16.4947 6.56117 15.2855 6.25887L14.25 6L15.2855 5.74113C16.4947 5.43883 17.4388 4.49467 17.7411 3.28546L18 2.25L18.2589 3.28546C18.5612 4.49467 19.5053 5.43883 20.7145 5.74113L21.75 6L20.7145 6.25887C19.5053 6.56117 18.5612 7.50533 18.2589 8.71454Z" fill="none" stroke="currentColor" stroke-width="1.5" stroke-linecap="round" stroke-linejoin="round"/>
    <path d="M16.8942 20.5673L16.5 21.75L16.1058 20.5673C15.8818 19.8954 15.3546 19.3682 14.6827 19.1442L13.5 18.75L14.6827 18.3558C15.3546 18.1318 15.8818 17.6046 16.1058 16.9327L16.5 15.75L16.8942 16.9327C17.1182 17.6046 17.6454 18.1318 18.3173 18.3558L19.5 18.75L18.3173 19.1442C17.6454 19.3682 17.1182 19.8954 16.8942 20.5673Z" fill="none" stroke="currentColor" stroke-width="1.5" stroke-linecap="round" stroke-linejoin="round"/>
  </symbol>
  <symbol id="hero-bolt" viewBox="0 0 24 24">
    <path d="M3.75 13.5L14.25 2.25L12 10.5H20.25L9.75 21.75L12 13.5H3.75Z" fill="none" stroke="currentColor" stroke-width="1.5" stroke-linecap="round" stroke-linejoin="round"/>
  </symbol>
  <symbol id="hero-map-pin" viewBox="0 0 24 24">
    <path d="M15 10.5C15 12.1569 13.6569 13.5 12 13.5C10.3431 13.5 9 12.1569 9 10.5C9 8.84315 10.3431 7.5 12 7.5C13.6569 7.5 15 8.84315 15 10.5Z" fill="none" stroke="currentColor" stroke-width="1.5" stroke-linecap="round" stroke-linejoin="round"/>
    <path d="M19.5 10.5C19.5 17.6421 12 21.75 12 21.75C12 21.75 4.5 17.6421 4.5 10.5C4.5 6.35786 7.85786 3 12 3C16.1421 3 19.5 6.35786 19.5 10.5Z" fill="none" stroke="currentColor" stroke-width="1.5" stroke-linecap="round" stroke-linejoin="round"/>
  </symbol>
  <symbol id="hero-currency-pound" viewBox="0 0 24 24">
    <path d="M14.1213 7.62877C12.9497 6.45719 11.0503 6.45719 9.87868 7.62877C9.37424 8.13321 9.08699 8.7726 9.01694 9.43073C8.9944 9.64251 9.01512 9.85582 9.04524 10.0667L9.5512 13.6084C9.68065 14.5146 9.5307 15.4386 9.12135 16.2573L9 16.5L10.5385 15.9872C11.0003 15.8332 11.4997 15.8332 11.9615 15.9872L12.6158 16.2053C13.182 16.394 13.7999 16.3501 14.3336 16.0832L15 15.75M8.25 12H12M21 12C21 16.9706 16.9706 21 12 21C7.02944 21 3 16.9706 3 12C3 7.02944 7.02944 3 12 3C16.9706 3 21 7.02944 21 12Z" fill="none" stroke="currentColor" stroke-width="1.5" stroke-linecap="round" stroke-linejoin="round"/>
  </symbol>
  <symbol id="hero-user-group" viewBox="0 0 24 24">
    <path d="M17.9999 18.7191C18.2474 18.7396 18.4978 18.75 18.7506 18.75C19.7989 18.75 20.8054 18.5708 21.741 18.2413C21.7473 18.1617 21.7506 18.0812 21.7506 18C21.7506 16.3431 20.4074 15 18.7506 15C18.123 15 17.5403 15.1927 17.0587 15.5222M17.9999 18.7191C18 18.7294 18 18.7397 18 18.75C18 18.975 17.9876 19.1971 17.9635 19.4156C16.2067 20.4237 14.1707 21 12 21C9.82933 21 7.79327 20.4237 6.03651 19.4156C6.01238 19.1971 6 18.975 6 18.75C6 18.7397 6.00003 18.7295 6.00008 18.7192M17.9999 18.7191C17.994 17.5426 17.6494 16.4461 17.0587 15.5222M17.0587 15.5222C15.9928 13.8552 14.1255 12.75 12 12.75C9.87479 12.75 8.00765 13.8549 6.94169 15.5216M6.94169 15.5216C6.46023 15.1925 5.87796 15 5.25073 15C3.59388 15 2.25073 16.3431 2.25073 18C2.25073 18.0812 2.25396 18.1617 2.26029 18.2413C3.19593 18.5708 4.2024 18.75 5.25073 18.75C5.50307 18.75 5.75299 18.7396 6.00008 18.7192M6.94169 15.5216C6.35071 16.4457 6.00598 17.5424 6.00008 18.7192M15 6.75C15 8.40685 13.6569 9.75 12 9.75C10.3431 9.75 9 8.40685 9 6.75C9 5.09315 10.3431 3.75 12 3.75C13.6569 3.75 15 5.09315 15 6.75ZM21 9.75C21 10.9926 19.9926 12 18.75 12C17.5074 12 16.5 10.9926 16.5 9.75C16.5 8.50736 17.5074 7.5 18.75 7.5C19.9926 7.5 21 8.50736 21 9.75ZM7.5 9.75C7.5 10.9926 6.49264 12 5.25 12C4.00736 12 3 10.9926 3 9.75C3 8.50736 4.00736 7.5 5.25 7.5C6.49264 7.5 7.5 8.50736 7.5 9.75Z" fill="none" stroke="currentColor" stroke-width="1.5" stroke-linecap="round" stroke-linejoin="round"/>
  </symbol>
  <symbol id="hero-heart" viewBox="0 0 24 24">
    <path d="M21 8.25C21 5.76472 18.9013 3.75 16.3125 3.75C14.3769 3.75 12.7153 4.87628 12 6.48342C11.2847 4.87628 9.62312 3.75 7.6875 3.75C5.09867 3.75 3 5.76472 3 8.25C3 15.4706 12 20.25 12 20.25C12 20.25 21 15.4706 21 8.25Z" fill="none" stroke="currentColor" stroke-width="1.5" stroke-linecap="round" stroke-linejoin="round"/>
  </symbol>
  <symbol id="hero-calendar" viewBox="0 0 24 24">
    <path d="M6.75 3V5.25M17.25 3V5.25M3 18.75V7.5C3 6.25736 4.00736 5.25 5.25 5.25H18.75C19.9926 5.25 21 6.25736 21 7.5V18.75M3 18.75C3 19.9926 4.00736 21 5.25 21H18.75C19.9926 21 21 19.9926 21 18.75M3 18.75V11.25C3 10.0074 4.00736 9 5.25 9H18.75C19.9926 9 21 10.0074 21 11.25V18.75" fill="none" stroke="currentColor" stroke-width="1.5" stroke-linecap="round" stroke-linejoin="round"/>
  </symbol>
  <symbol id="hero-arrow-path" viewBox="0 0 24 24">
    <path d="M16.0228 9.34841H21.0154V9.34663M2.98413 19.6444V14.6517M2.98413 14.6517H7.97677M2.98413 14.6517L6.16502 17.8347C7.15555 18.8271 8.41261 19.58 9.86436 19.969C14.2654 21.1483 18.7892 18.5364 19.9685 14.1353M4.03073 9.86484C5.21 5.46374 9.73377 2.85194 14.1349 4.03121C15.5866 4.4202 16.8437 5.17312 17.8342 6.1655L21.0154 9.34663M21.0154 4.3558V9.34663" fill="none" stroke="currentColor" stroke-width="1.5" stroke-linecap="round" stroke-linejoin="round"/>
  </symbol>
</svg>
